/* XPM */
static char *application24_png[] = {
/* columns rows colors chars-per-pixel */
"24 24 23 1 ",
"  c #00B503",
". c #00B603",
"X c #00B504",
"o c #00B505",
"O c #00B604",
"+ c #00B704",
"@ c #00B605",
"# c #00B705",
"$ c #00B506",
"% c #00B20F",
"& c #00AC1D",
"* c #00739A",
"= c #006CAB",
"- c #0067B5",
"; c #0066B6",
": c #0067B6",
"> c #0067B7",
", c #0068B4",
"< c #0068B5",
"1 c #0068B6",
"2 c #0068B7",
"3 c #0068B8",
"4 c None",
/* pixels */
"444444444444444444444444",
"4444444444@@XO+O44444444",
"4444444444@@OOOO+.444444",
"4444444444@oOOOO+OO44444",
"4444444444444OOO+OO.4444",
"444444444444444O+OOO4444",
"4444444444444444OOOOO444",
"44444444444444444OOOO444",
"44444444444444444 OOOo44",
"444=,44444444444OOOOOOO4",
"444::*44444444444OOOOO.4",
"44,::-44444444444#OOOO44",
"44:::::44444444444oOO#44",
"4::::::44444444444&OO444",
"4:::::::44444444444$%444",
"444:::<44444414444444444",
"444::::;44444>4444444444",
"4444::::1444444444444444",
"4444:::::344444444444444",
"44444::::>::1:4444444444",
"444444:::>::1:4444444444",
"44444444:>::2:4444444444",
"444444444444444444444444",
"444444444444444444444444"
};
