/* XPM */
static char *application__[] = {
/* columns rows colors chars-per-pixel */
"48 48 179 2",
"   c #0D3707",
".  c #0C3C06",
"X  c #0F3E08",
"o  c #024601",
"O  c #0D4306",
"+  c #014C01",
"@  c #0C4D06",
"#  c #0E4408",
"$  c #134509",
"%  c #124D0A",
"&  c #194C0D",
"*  c #015201",
"=  c #0B5404",
"-  c #005C00",
";  c #0A5E02",
":  c #0F5A0C",
">  c #15510B",
",  c #1B570D",
"<  c #145B0A",
"1  c #155D15",
"2  c #195B10",
"3  c #016300",
"4  c #0C6206",
"5  c #016C00",
"6  c #0C6C07",
"7  c #0D650D",
"8  c #0F6A09",
"9  c #16670D",
"0  c #136909",
"q  c #037301",
"w  c #0A7606",
"e  c #027B01",
"r  c #0A7E06",
"t  c #0C730C",
"y  c #14740C",
"u  c #1A750D",
"i  c #177A0C",
"p  c #19780C",
"a  c #1C6211",
"s  c #1C6B14",
"d  c #1B631B",
"f  c #157615",
"g  c #1D7010",
"h  c #157915",
"j  c #187817",
"k  c #216414",
"l  c #216C11",
"z  c #216118",
"x  c #217210",
"c  c #217F12",
"v  c #2C5820",
"b  c #2B6A23",
"n  c #2E6C28",
"m  c #237023",
"M  c #32702D",
"N  c #397E34",
"B  c #3B793B",
"V  c #487C32",
"C  c #038302",
"Z  c #088505",
"A  c #028A01",
"S  c #09830A",
"D  c #009400",
"F  c #019B00",
"G  c #079008",
"H  c #1A8414",
"J  c #168D13",
"K  c #1A8917",
"L  c #1B841B",
"P  c #1E8C1C",
"I  c #149413",
"U  c #139912",
"Y  c #189418",
"T  c #228F1E",
"R  c #2F8E1F",
"E  c #239B1E",
"W  c #28991F",
"Q  c #00AA00",
"!  c #0BAB0A",
"~  c #10A70E",
"^  c #07B406",
"/  c #12A110",
"(  c #1FAD1F",
")  c #248223",
"_  c #238D23",
"`  c #288528",
"'  c #308E20",
"]  c #269426",
"[  c #2F9722",
"{  c #279B22",
"}  c #2C9922",
"|  c #2C952C",
" . c #329422",
".. c #329923",
"X. c #318531",
"o. c #378D37",
"O. c #3A8B38",
"+. c #369336",
"@. c #329A32",
"#. c #3F913F",
"$. c #3C9C3C",
"%. c #27A727",
"&. c #25A925",
"*. c #2EB02E",
"=. c #33A333",
"-. c #37AD37",
";. c #3CA23C",
":. c #3BAA3B",
">. c #36B436",
",. c #37BB37",
"<. c #3BB33B",
"1. c #449526",
"2. c #40A93D",
"3. c #03C303",
"4. c #1DC41D",
"5. c #05E105",
"6. c #1BE41B",
"7. c #2CC42C",
"8. c #36C136",
"9. c #33C933",
"0. c #33D233",
"q. c #31D932",
"w. c #2BE02B",
"e. c #458643",
"r. c #498647",
"t. c #458A45",
"y. c #4A8A47",
"u. c #498B49",
"i. c #429241",
"p. c #449D44",
"a. c #4A964A",
"s. c #4D9D4D",
"d. c #529552",
"f. c #559B55",
"g. c #5C955C",
"h. c #5B9959",
"j. c #44A244",
"k. c #43AB43",
"l. c #4CA34C",
"z. c #4DAB4D",
"x. c #43B143",
"c. c #4DB04D",
"v. c #54A454",
"b. c #59A157",
"n. c #54AB54",
"m. c #5CA55B",
"M. c #5DAB5D",
"N. c #75AD45",
"B. c #60B45F",
"V. c #62A462",
"C. c #63AC63",
"Z. c #6AAC6A",
"A. c #63B063",
"S. c #6CB36C",
"D. c #74B574",
"F. c #78B777",
"G. c #75BA75",
"H. c #79B779",
"J. c #7ABD7A",
"K. c #7FC47F",
"L. c #89B989",
"P. c #81C481",
"I. c #86CA86",
"U. c #88C288",
"Y. c #8CCE8C",
"T. c #8CD08C",
"R. c #8FC990",
"E. c #91C591",
"W. c #95CD96",
"Q. c #98CF98",
"!. c #92D292",
"~. c #9ED29E",
"^. c #A3C9A3",
"/. c #A5D6A5",
"(. c #A5DBA5",
"). c #AADBAA",
"_. c #B3D3B3",
"`. c #AFE0AF",
"'. c None",
/* pixels */
"'.'.'.'.'.'.'.'.'.'.'.'.'.'.'.'.'.'.'.'.'.'.'.'.'.'.'.'.'.'.'.'.'.'.'.'.'.'.'.'.'.'.'.'.'.'.'.'.",
"'.'.'.'.'.'.'.'.'.'.'.'.'.'.'.'.'.'.'.'.'.'.s.m.C.h.'.'.'.'.'.'.'.'.'.'.'.'.'.'.'.'.'.'.'.'.'.'.",
"'.'.'.'.'.'.'.'.'.'.'.'.'.'.'.'.'.'.t X.d.Z.L.^._.^.L.Z.a.) '.'.'.'.'.'.'.'.'.'.'.'.'.'.'.'.'.'.",
"'.'.'.'.'.'.'.'.'.'.'.'.'.'.'.5 j ` a.U.~./.).`.`.).)./.E.V.X.j 5 '.'.'.'.'.'.'.'.'.'.~.'.'.'.'.",
"'.'.'.'.'.'.'.'.'.'.'.'.'.5 f i.H.~.(.!.T.T.Y.Y.Y.T.Y.Y.!././.J.i.j 5 '.'.'.'.'.'.'.B.R.'.'.'.'.",
"'.'.'.'.'.'.'.'.'.'.'.'.q O.S.W.!.I.I.I.I.I.I.I.I.I.I.I.I.I.I.!.Q.D.i.5 '.'.'.'.C J P.;.'.'.'.'.",
"'.'.'.'.'.'.'.'.'.'.3 8 b.U.Y.K.K.K.P.K.K.K.K.K.K.K.K.K.K.K.K.K.K.Y.U.m.y q '.e K C.~.E '.'.'.'.",
"'.'.'.'.'.'.'.'.'.3 s C.P.J.J.J.J.J.J.K.J.J.K.J.J.K.K.J.J.J.J.J.J.G.K.U.S.) 5 H C.K.Y.{ '.'.'.'.",
"'.'.'.'.'.'.'.'.; s C.H.G.G.G.G.G.G.G.G.G.G.J.G.G.J.J.G.G.G.G.G.G.G.G.G.K.G.Z.S.J.G.U.{ '.'.'.'.",
"'.'.'.'.'.'.'.'.: h.D.S.S.S.S.S.S.S.S.S.G.V.t.t.r.r.d.V.G.S.S.S.S.S.S.S.S.S.D.S.S.S.H.W '.'.'.'.",
"'.'.'.'.'.'.'.= r.S.Z.Z.C.Z.Z.Z.Z.S.Z.r.1 * * + * + * + d t.Z.A.A.S.S.A.S.A.S.A.Z.S.H.} '.'.'.'.",
"'.'.'.'.'.'.= M C.C.C.C.C.C.V.C.S.g.: o + + o + + + + * * * 7 #.M.A.A.C.A.C.A.A.C.C.S.} '.'.'.'.",
"'.'.'.'.'.'.1 r.Z.m.M.M.C.m.m.V.B o o + + o o # # O o * - - 3 - ` n.M.B.M.M.M.M.m.m.C.} '.'.'.'.",
"'.'.'.'.'.< n V.m.m.m.m.m.m.f.d o + o @ # X X X O   X $ = 3 5 5 5 L z.n.n.n.n.v.n.v.m...'.'.'.'.",
"'.'.'.'.'.a 1.m.v.v.v.v.v.m.m o + @ @ $ > '.'.'.'.'.'.% $ @ 5 e e e ] c.c.c.z.z.l.v.b...'.'.'.'.",
"'.'.'.'.'.z d.f.v.v.v.v.v.X.- * + % > '.'.'.'.'.'.'.'.'.'.& % e A A C =.c.z.z.l.j.l.s...'.'.'.'.",
"'.'.'.'.s b v.l.s.l.l.l.p.3 3 3 < , '.'.'.'.'.'.'.'.'.'.'.& % A F D D U x.k.k.j.j.p.p. .'.'.'.'.",
"'.'.'.'.k N j.p.s.p.s.l.j 3 5 0 l '.'.'.'.'.'.'.'.'.'.'.& % Z Q Q ! ( *.<.:.:.;.;.;.$.R '.'.'.'.",
"'.'.'.'.a O.p.p.p.;.p.$.5 5 5 s '.'.'.'.'.'.'.'.'.'.'.$ $ A 3.3.4.7.8.,.>.-.:.=.{ T h H '.'.'.'.",
"'.'.'.'.a O.$.$.'.'.'._ 5 q e '.'.'.'.'.'.'.'.'.'.'.'.# F 5.6.w.q.0.9.,.,.&.U G Z e 3 p '.'.'.'.",
"'.'.'.'.a +.$.$.'.'.'.'.'.C '.'.'.'.'.'.'.'.'.'.'.'.N.1.F ^ ! ~ / U I J Z Z C e q w 4 p '.'.'.'.",
"'.'.'.'.a @.| @.'.'.'.'.'.D '.'.'.'.'.'.'.'.'.'.'.'.V v . . X O O O # = 4 4 < 8 6 w y '.'.'.'.'.",
"'.'.'.'.9 P '.'.'.'.'.'.'.'.'.'.'.'.'.'.'.'.'.'.'.'.'.'.'.'.'.'.'.'.'.'.'.'.'.'.'.'.'.'.'.'.'.'.",
"'.'.'.'.'.'.'.'.'.'.'.'.'.'.'.'.'.'.'.'.'.'.'.'.'.'.'.'.'.'.'.'.'.'.'.'.'.'.'.'.'.'.'.y '.'.'.'.",
"'.'.'.'.'.'.'.'.'.'.'.'.'.'.'.'.'.'.'.'.'.'.'.'.'.'.'.'.'.'.'.'.'.'.'.'.'.'.'.'.'.'.'.0 '.'.'.'.",
"'.'.'.'.'.'.'.'.'.'.'.'.'.'.'.'.'.'.'.'.'.'.'.'.'.'.'.'.'.'.'.'.'.'.'.'.'.'.'.'.'.] P 9 '.'.'.'.",
"'.'.'.'.i 0 < < > % @ % $ # O O X X X . v V '.'.'.'.'.'.'.'.'.'.'.'.'.'.'.'.@.@.@.@.@.9 '.'.'.'.",
"'.'.'.'.y 4 4 4 5 6 w r J I U / ! ! ^ F 1.N.'.'.'.'.'.'.'.'.'.'.x r '.'.'.'.$.$.$.$.+.a '.'.'.'.",
"'.'.'.'.p 3 5 q S Y %.>.8.9.0.q.w.6.5.F # '.'.'.'.'.'.'.'.'.'.'.x e '.'.'.'.$.$.$.$.o.2 '.'.'.'.",
"'.'.'.'.T 0 ) | =.:.-.>.,.8.7.4.3.3.A $ $ '.'.'.'.'.'.'.'.'.'.'.s 5 5 '.'.j.p.p.p.p.O.a '.'.'.'.",
"'.'.'.'.' p.$.;.;.:.:.<.*.( ! Q Q Z % & '.'.'.'.'.'.'.'.'.'.'.l 0 5 5 j l.j.j.s.p.p.N k '.'.'.'.",
"'.'.'.'.[ p.p.j.k.k.k.x.I D D F A % & '.'.'.'.'.'.'.'.'.'.'., < 3 3 3 a.l.s.s.l.s.v.b g '.'.'.'.",
"'.'.'.'...s.s.j.z.j.c.c.%.C A A e % % '.'.'.'.'.'.'.'.'.'.> % @ * - X.v.v.v.v.s.v.s.z '.'.'.'.'.",
"'.'.'.'...v.v.l.z.n.n.c.c.] e e e 5 @ $ % '.'.'.'.'.'.> $ @ + + o m m.n.n.v.v.v.m.e.a '.'.'.'.'.",
"'.'.'.'.[ m.v.v.v.n.n.n.n.c.L 5 q 5 3 @ $     O $ . X $ @ o + o 1 h.m.M.m.m.m.m.m.n < '.'.'.'.'.",
"'.'.'.'.} Z.M.M.M.M.M.M.B.M.v.` - 3 - - * + O # O o o + + o o B V.m.m.M.V.M.C.C.y.2 '.'.'.'.'.'.",
"'.'.'.'.} S.C.C.A.A.C.A.C.A.A.M.#.7 * * * + + + o + o + + : g.S.C.C.C.C.C.C.C.C.M = '.'.'.'.'.'.",
"'.'.'.'.} H.A.S.A.S.A.S.A.S.S.A.S.C.t.d * + + + * + * 1 r.Z.S.Z.Z.Z.Z.Z.Z.Z.Z.t.= '.'.'.'.'.'.'.",
"'.'.'.'.W J.S.S.S.D.S.S.S.S.S.S.S.S.D.G.V.d.u.u.t.u.V.D.S.S.S.S.Z.S.S.S.S.D.h.: '.'.'.'.'.'.'.'.",
"'.'.'.'.{ L.G.H.S.Z.G.K.G.G.G.G.G.G.G.G.G.G.J.G.G.J.G.G.G.G.G.G.G.G.G.G.J.C.a ; '.'.'.'.'.'.'.'.",
"'.'.'.'.{ Y.K.C.H 5 ) S.U.K.G.J.K.G.K.J.J.J.K.G.J.K.J.J.K.J.J.J.J.J.J.P.C.g 3 '.'.'.'.'.'.'.'.'.",
"'.'.'.'.E ~.C.K e '.q y m.U.Y.K.K.K.K.K.K.K.P.K.K.K.K.K.K.K.P.K.K.Y.U.m.8 3 '.'.'.'.'.'.'.'.'.'.",
"'.'.'.'.;.P.J C '.'.'.'.5 i.D.Q.!.I.I.I.I.I.I.I.I.I.I.I.I.I.I.!.W.Z.#.5 '.'.'.'.'.'.'.'.'.'.'.'.",
"'.'.'.'.R.B.'.'.'.'.'.'.'.5 j i.H././.!.T.T.T.Y.Y.Y.T.T.!.(.~.H.#.f 5 '.'.'.'.'.'.'.'.'.'.'.'.'.",
"'.'.'.'.~.'.'.'.'.'.'.'.'.'.'.5 j X.V.E././.).`.`.)./.~.U.a.` j 5 '.'.'.'.'.'.'.'.'.'.'.'.'.'.'.",
"'.'.'.'.'.'.'.'.'.'.'.'.'.'.'.'.'.'.) a.Z.L.^._.^.L.S.d.X.t '.'.'.'.'.'.'.'.'.'.'.'.'.'.'.'.'.'.",
"'.'.'.'.'.'.'.'.'.'.'.'.'.'.'.'.'.'.'.'.'.'.h.Z.m.s.'.'.'.'.'.'.'.'.'.'.'.'.'.'.'.'.'.'.'.'.'.'.",
"'.'.'.'.'.'.'.'.'.'.'.'.'.'.'.'.'.'.'.'.'.'.'.'.'.'.'.'.'.'.'.'.'.'.'.'.'.'.'.'.'.'.'.'.'.'.'.'."
};
