/* XPM */
static char * application32_xpm[] = {
"32 32 372 2",
"  	c None",
". 	c #0C720C",
"+ 	c #438B43",
"@ 	c #6AAB6A",
"# 	c #8CBB8C",
"$ 	c #9FC79F",
"% 	c #8AB88A",
"& 	c #5CA35C",
"* 	c #248224",
"= 	c #10740F",
"- 	c #398F38",
"; 	c #6DAF6D",
"> 	c #9DD49D",
", 	c #A4D8A4",
"' 	c #A8DDA8",
") 	c #A6DCA6",
"! 	c #A6DAA6",
"~ 	c #A2D5A2",
"{ 	c #7EB87E",
"] 	c #3F8F3F",
"^ 	c #10750F",
"/ 	c #047102",
"( 	c #4A9A49",
"_ 	c #8CC78D",
": 	c #8ECE8E",
"< 	c #8DCF8D",
"[ 	c #87CB87",
"} 	c #86CA86",
"| 	c #8DCD8D",
"1 	c #90CF90",
"2 	c #8EC88E",
"3 	c #529D51",
"4 	c #046D03",
"5 	c #028300",
"6 	c #74BD74",
"7 	c #146E0F",
"8 	c #74B473",
"9 	c #8CCC8C",
"0 	c #7BC17B",
"a 	c #7DC27D",
"b 	c #7FC27F",
"c 	c #7EC37E",
"d 	c #8BCB8B",
"e 	c #77B777",
"f 	c #197A13",
"g 	c #0A7E08",
"h 	c #5EAA5D",
"i 	c #84C883",
"j 	c #085D00",
"k 	c #1E7018",
"l 	c #71B271",
"m 	c #78BD78",
"n 	c #76BA76",
"o 	c #76BB76",
"p 	c #7ABE7A",
"q 	c #7EC17E",
"r 	c #75BA75",
"s 	c #79BC79",
"t 	c #7AC07A",
"u 	c #549F54",
"v 	c #62AE61",
"w 	c #77BC77",
"x 	c #74BC73",
"y 	c #135B10",
"z 	c #6BA96A",
"A 	c #6DB26D",
"B 	c #69B169",
"C 	c #6BB16B",
"D 	c #6BB06B",
"E 	c #6BB26B",
"F 	c #64A963",
"G 	c #468B46",
"H 	c #327933",
"I 	c #377735",
"J 	c #3C803B",
"K 	c #529652",
"L 	c #64AA64",
"M 	c #6DB36D",
"N 	c #69B269",
"O 	c #6AB16A",
"P 	c #71B471",
"Q 	c #6AB26A",
"R 	c #67B065",
"S 	c #0F5608",
"T 	c #539851",
"U 	c #65AE66",
"V 	c #64AB64",
"W 	c #63AC63",
"X 	c #64A664",
"Y 	c #66AF66",
"Z 	c #6CA86C",
"` 	c #1A6217",
" .	c #054D05",
"..	c #004A00",
"+.	c #004C00",
"@.	c #004B00",
"#.	c #004F00",
"$.	c #0A580A",
"%.	c #297C2A",
"&.	c #5DAB5D",
"*.	c #66B166",
"=.	c #64B064",
"-.	c #63AF63",
";.	c #64AD64",
">.	c #61AE5E",
",.	c #246723",
"'.	c #65A664",
").	c #5BA55A",
"!.	c #5CA95C",
"~.	c #60A960",
"{.	c #5BA45A",
"].	c #4C8D4C",
"^.	c #034803",
"/.	c #014600",
"(.	c #034B02",
"_.	c #044302",
":.	c #0D4207",
"<.	c #0E4207",
"[.	c #064203",
"}.	c #045202",
"|.	c #005D00",
"1.	c #006200",
"2.	c #127312",
"3.	c #4EA74E",
"4.	c #5DB15C",
"5.	c #5AAA5A",
"6.	c #5AA85A",
"7.	c #59A458",
"8.	c #56A653",
"9.	c #165C0D",
"0.	c #489531",
"a.	c #57A558",
"b.	c #55A455",
"c.	c #58A558",
"d.	c #3C863C",
"e.	c #074C03",
"f.	c #0B4905",
"g.	c #134C0A",
"h.	c #124A09",
"i.	c #0B4D05",
"j.	c #007200",
"k.	c #007600",
"l.	c #0D800D",
"m.	c #4AAC4A",
"n.	c #4EAF4E",
"o.	c #4EAB4E",
"p.	c #4EA84E",
"q.	c #52A452",
"r.	c #519F4C",
"s.	c #1E5E15",
"t.	c #579C59",
"u.	c #52A152",
"v.	c #52A352",
"w.	c #499C49",
"x.	c #046104",
"y.	c #015401",
"z.	c #114E09",
"A.	c #16510B",
"B.	c #1A4C0D",
"C.	c #0F5308",
"D.	c #018C00",
"E.	c #008A00",
"F.	c #1E981E",
"G.	c #4DB04D",
"H.	c #4BAB4B",
"I.	c #48A148",
"J.	c #459B41",
"K.	c #307128",
"L.	c #47A548",
"M.	c #4C9C4C",
"N.	c #469D46",
"O.	c #50A450",
"P.	c #187717",
"Q.	c #006700",
"R.	c #136809",
"S.	c #16460B",
"T.	c #078104",
"U.	c #00A500",
"V.	c #09A509",
"W.	c #22A922",
"X.	c #3EB13E",
"Y.	c #3CAA3C",
"Z.	c #3EA13E",
"`.	c #3FA23F",
" +	c #3C9B39",
".+	c #32812E",
"++	c #429D43",
"@+	c #439C43",
"#+	c #3CA13C",
"$+	c #3B9C3B",
"%+	c #006800",
"&+	c #006F00",
"*+	c #1F6A17",
"=+	c #104508",
"-+	c #038F01",
";+	c #08D108",
">+	c #1ECB1E",
",+	c #32C932",
"'+	c #38BE38",
")+	c #36B436",
"!+	c #33A833",
"~+	c #269D26",
"{+	c #1B8D16",
"]+	c #0F730E",
"^+	c #30852D",
"/+	c #3D9D3D",
"(+	c #80B54B",
"_+	c #2B8B17",
":+	c #03C103",
"<+	c #10BD10",
"[+	c #18B517",
"}+	c #1AA919",
"|+	c #1D9C1C",
"1+	c #0F910D",
"2+	c #068B05",
"3+	c #017D00",
"4+	c #067703",
"5+	c #0C6405",
"6+	c #298C26",
"7+	c #2B952B",
"8+	c #467A31",
"9+	c #224919",
"0+	c #0B3005",
"a+	c #0F3507",
"b+	c #0C3A05",
"c+	c #0C3B05",
"d+	c #0A4A03",
"e+	c #0C6006",
"f+	c #145709",
"g+	c #0F6A09",
"h+	c #097305",
"i+	c #15750D",
"j+	c #146E09",
"k+	c #14590A",
"l+	c #104909",
"m+	c #114909",
"n+	c #113D07",
"o+	c #0D3905",
"p+	c #0F3407",
"q+	c #0E3207",
"r+	c #319931",
"s+	c #2F982F",
"t+	c #288C25",
"u+	c #0B6506",
"v+	c #086403",
"w+	c #016E00",
"x+	c #0E780A",
"y+	c #11890E",
"z+	c #1D9F1B",
"A+	c #17B616",
"B+	c #0FBE0F",
"C+	c #02C103",
"D+	c #237110",
"E+	c #067E04",
"F+	c #3C9C3C",
"G+	c #0E6B06",
"H+	c #1D801D",
"I+	c #279928",
"J+	c #34A834",
"K+	c #36B336",
"L+	c #38C038",
"M+	c #206C15",
"N+	c #006E00",
"O+	c #429D42",
"P+	c #419C41",
"Q+	c #439D43",
"R+	c #429D3F",
"S+	c #3E9E3E",
"T+	c #3EA33E",
"U+	c #23A822",
"V+	c #16460C",
"W+	c #136808",
"X+	c #006900",
"Y+	c #177616",
"Z+	c #4DA54D",
"`+	c #44A144",
" @	c #4C9D4C",
".@	c #48A048",
"+@	c #307228",
"@@	c #499D49",
"#@	c #4AAA4A",
"$@	c #43A543",
"%@	c #4EB14E",
"&@	c #169A15",
"*@	c #144D0A",
"=@	c #15510B",
"-@	c #144F0A",
";@	c #035401",
">@	c #4A9A4A",
",@	c #53A253",
"'@	c #4D9E4D",
")@	c #53A553",
"!@	c #1F5D15",
"~@	c #4DA14A",
"{@	c #4DA74D",
"]@	c #55AB55",
"^@	c #4FAE4F",
"/@	c #4BAC4B",
"(@	c #0D810D",
"_@	c #0B4A05",
":@	c #004400",
"<@	c #3D863D",
"[@	c #58AB58",
"}@	c #55A855",
"|@	c #55A355",
"1@	c #58A557",
"2@	c #498947",
"3@	c #165D0A",
"4@	c #5BA658",
"5@	c #59A959",
"6@	c #5AA95A",
"7@	c #5DB25C",
"8@	c #4EA24E",
"9@	c #045102",
"0@	c #054503",
"a@	c #0C4305",
"b@	c #044B02",
"c@	c #044803",
"d@	c #4B8C4B",
"e@	c #5DA45B",
"f@	c #5CAA5C",
"g@	c #60A45F",
"h@	c #60AA60",
"i@	c #5FA65E",
"j@	c #26671F",
"k@	c #60AE5E",
"l@	c #62AC62",
"m@	c #5EAB5E",
"n@	c #297C29",
"o@	c #005000",
"p@	c #004700",
"q@	c #054F05",
"r@	c #196417",
"s@	c #66AE66",
"t@	c #64AC64",
"u@	c #65AC65",
"v@	c #529951",
"w@	c #68B566",
"x@	c #68B168",
"y@	c #6BB36B",
"z@	c #6AAC6A",
"A@	c #529752",
"B@	c #3C803C",
"C@	c #377A37",
"D@	c #337A33",
"E@	c #478C47",
"F@	c #63A563",
"G@	c #69AB69",
"H@	c #6CB16C",
"I@	c #125C10",
"J@	c #75B574",
"K@	c #77BB77",
"L@	c #62AC61",
"M@	c #76BC76",
"N@	c #79BE79",
"O@	c #78BC78",
"P@	c #72B772",
"Q@	c #1E6A16",
"R@	c #085E00",
"S@	c #7CC17C",
"T@	c #7EC27E",
"U@	c #7DC17D",
"V@	c #76B776",
"W@	c #8FCF8F",
"X@	c #8CC78C",
"Y@	c #499649",
"Z@	c #036D02",
"`@	c #A2D7A2",
" #	c #A7DCA7",
".#	c #8BB88B",
"+#	c #A1C7A0",
"@#	c #438A43",
"                                                                ",
"                        . + @ # $ % & *                         ",
"                    = - ; > , ' ) ! ~ { ] ^                     ",
"                / ( _ : < [ [ } } [ [ | 1 2 3 4       5 6       ",
"              7 8 9 0 a b a a a a c a a a 0 d e f   g h i       ",
"          j k l m n n n o n m p p q o n n o r s t u v w x       ",
"          y z A B C D E C F G H I J K L M N E N O P B Q R       ",
"        S T U V W X Y Z `  .....+.@.#.$.%.&.*.W =.=.-.;.>.      ",
"        ,.'.).!.~.{.].^./.(._.:.<.[.}.|.1.2.3.4.5.5.6.7.8.      ",
"      9.0.a.b.b.c.d./.e.f.g.        h.i.j.k.l.m.n.o.p.q.r.      ",
"      s.t.u.q.v.w.x.y.z.A.            B.C.D.E.F.G.H.I.I.J.      ",
"      K.L.M.N.O.P.Q.R.                S.T.U.V.W.X.Y.Z.`. +      ",
"      .+++@+#+$+%+&+*+              =+-+;+>+,+'+)+!+~+{+]+      ",
"      ^+/+                        (+_+:+<+[+}+|+1+2+3+4+5+      ",
"      6+7+                        8+9+0+a+b+c+d+e+f+g+h+i+      ",
"                                                                ",
"                                                                ",
"      j+k+A.l+m+n+c+o+p+q+9+8+                    r+r+s+t+      ",
"      u+v+w+x+y+z+}+A+B+C+_+(+            D+E+    F+F+F+^+      ",
"      G+H+I+J+K+L+,+>+;+-+=+              M+N+    O+P+Q+.+      ",
"      R+S+T+Y.X.U+V.U.T.V+                W+X+Y+Z+`+ @.@+@      ",
"      J.@@#@$@%@&@E.D.C.*@            =@-@;@x.>@v.,@'@)@!@      ",
"      ~@v.{@]@^@/@(@k.j.i.h.        *@_@@.:@<@[@}@|@1@2@3@      ",
"      4@5@6@5.5.7@8@2.1.|.9@0@<.a@_.b@/.c@d@e@f@g@h@i@j@        ",
"      k@l@-.=.=.W *.m@n@$.o@..@.p@p@q@r@Z s@t@V t@u@v@S         ",
"      w@x@N P O N E Q y@z@A@B@C@D@E@F@C E G@C C H@z I@          ",
"      J@K@L@u t s r o r M@o N@N@p m o o n o n O@P@Q@R@          ",
"      i h g   f e d 0 S@c a T@U@a a a a T@0 9 V@7               ",
"      6 5       4 3 2 W@| [ [ } } [ [ < : X@Y@Z@                ",
"                    = ] { ~ `@ #' , > ; - =                     ",
"                        * & .#+## H@@#.                         ",
"                                                                "};
