/* XPM */
static char *application16_png[] = {
/* columns rows colors chars-per-pixel */
"16 16 21 1 ",
"  c #00B503",
". c #00B504",
"X c #00B505",
"o c #00B604",
"O c #00B704",
"+ c #00B605",
"@ c #00B506",
"# c #00B507",
"$ c #00B408",
"% c #00A42B",
"& c #00798D",
"* c #0067B5",
"= c #0066B6",
"- c #0067B6",
"; c #0067B7",
": c #0069B1",
"> c #0068B3",
", c #0068B6",
"< c #0068B7",
"1 c #0068B8",
"2 c None",
/* pixels */
"2222222222222222",
"222222O+Oo+22222",
"222222o+Oo.o+222",
"2222222222Xoo222",
"22222222222ooo22",
"22222222222@oo22",
"22:&2222222oooo.",
"22->2222222 oo.2",
"2---=2222222#o22",
";---,2222222%$22",
"22--*2222,222222",
"22---=2222222222",
"222--,-222222222",
"2222-,*,*,222222",
"2222221<22222222",
"2222222222222222"
};
