/* XPM */
static char *application32_png[] = {
/* columns rows colors chars-per-pixel */
"32 32 29 1 ",
"  c #00B503",
". c #00B603",
"X c #00B703",
"o c #00B504",
"O c #00B505",
"+ c #00B604",
"@ c #00B704",
"# c #00B605",
"$ c #00B705",
"% c #00B507",
"& c #00B804",
"* c #00B60A",
"= c #00B20E",
"- c #00AC19",
"; c #00B013",
": c #00719D",
"> c #006FA5",
", c #006BAB",
"< c #0069AF",
"1 c #0067B4",
"2 c #0066B5",
"3 c #0067B5",
"4 c #0066B6",
"5 c #0067B6",
"6 c #0067B7",
"7 c #0068B5",
"8 c #0068B6",
"9 c #0067B9",
"0 c None",
/* pixels */
"00000000000000000000000000000000",
"000000000000000$$X+0000000000000",
"0000000000000o##@++$++0000000000",
"0000000000000o##+++$+++#00000000",
"0000000000000o##+++$+++++0000000",
"0000000000000o#$O++$+++++o000000",
"0000000000000000000@++++++000000",
"00000000000000000000&++++++00000",
"000000000000000000000.+++++ 0000",
"0000000000000000000000++++++0000",
"00000000000000000000000+++++0000",
"00000,00000000000000000@++++@000",
"000005:00000000000000 +++++++++0",
"0000157000000000000000+++++++++0",
"000<555>000000000000000+++++++00",
"00055555000000000000000.+++++$00",
"005555553000000000000000+++++000",
"005555555000000000000000;+++*000",
"0855555555000000000000000O+%0000",
"0555555555200000000000000-+00000",
"00055555590000000050000000=00000",
"00005555560000000650000000000000",
"00004555554000000020000000000000",
"00000555556800000000000000000000",
"00000455556560000000000000000000",
"00000035556584533420000000000000",
"00000006556534533420000000000000",
"00000000265334533420000000000000",
"00000000006734533440000000000000",
"00000000000000000000000000000000",
"00000000000000000000000000000000",
"00000000000000000000000000000000"
};
