/* XPM */
static char *application48_png[] = {
/* columns rows colors chars-per-pixel */
"48 48 29 1 ",
"  c #00B503",
". c #00B603",
"X c #00B504",
"o c #00B505",
"O c #00B604",
"+ c #00B704",
"@ c #00B605",
"# c #00B705",
"$ c #00B407",
"% c #00B507",
"& c #00B30C",
"* c #00AA1E",
"= c #00B110",
"- c #00A330",
"; c #007B89",
": c #006EA7",
"> c #006AAF",
", c #0071A1",
"< c #0066B5",
"1 c #0067B5",
"2 c #0066B6",
"3 c #0067B6",
"4 c #0067B7",
"5 c #0069B0",
"6 c #0069B3",
"7 c #0068B5",
"8 c #0068B6",
"9 c #0069B6",
"0 c None",
/* pixels */
"000000000000000000000000000000000000000000000000",
"000000000000000000000000000000000000000000000000",
"00000000000000000000Oo@oO++OX@000000000000000000",
"0000000000000000000+Oo@oO++OO@@O 000000000000000",
"0000000000000000000+Oo@oO+OOO@@OOO+0000000000000",
"0000000000000000000+Oo@oO+OOO@@OOOO+000000000000",
"0000000000000000000+Oo@oO+OOO@@OOOOOO00000000000",
"0000000000000000000OOo@oO+OOO@@X+OOOOO0000000000",
"0000000000000000000OOo@o#+OOO@@X+OOOOOO000000000",
"0000000000000000000000000000O@@X+OOOOOO.00000000",
"000000000000000000000000000000@X+OOOOOOO00000000",
"0000000000000000000000000000000o+OOOOOOOO0000000",
"00000000000000000000000000000000+OOOOOOOO0000000",
"000000000000000000000000000000000OOOOOOOO+000000",
"000000000000000000000000000000000XOOOOOOOO000000",
"0000000000000000000000000000000000OOOOOOOO000000",
"0000000000000000000000000000000000@OOOOOOO+00000",
"0000000080000000000000000000000000OOOOOOOOX00000",
"000000063:0000000000000000000000OOOOOOOOOOOOOOO0",
"000000:33300000000000000000000000OOOOOOOOOOOOO@0",
"0000007333>0000000000000000000000OOOOOOOOOOOOO00",
"00000533333;0000000000000000000000OOOOOOOOOOO000",
"0000033333360000000000000000000000OOOOOOOOOO@000",
"000033333333,0000000000000000000000OOOOOOOOO0000",
"00003333333320000000000000000000000*OOOOOOOO0000",
"000333333333330000000000000000000000$OOOOOO00000",
"000333333333330000000000000000000000-OOOOO%00000",
"0033333333333330000000000000000000000&OOO@000000",
"08333333333333300000000000000000000000OOO0000000",
"03333333333333330000000000002000000000=O$0000000",
"000003333333330000000000000380000000000o00000000",
"000000333333330000000000002380000000000000000000",
"0000003333333330000000000<8380000000000000000000",
"000000333333333200000000001380000000000000000000",
"000000033333333330000000000180000000000000000000",
"000000013333333323000000000000000000000000000000",
"000000003333333323800000000000000000000000000000",
"000000000333333383318<90008380000000000000000000",
"000000000833338383318384818380000000000000000000",
"0000000000<3338383318384818380000000000000000000",
"000000000000338383318384818380000000000000000000",
"000000000000038383318384818380000000000000000000",
"000000000000000383318384818380000000000000000000",
"000000000000000004348384818380000000000000000000",
"000000000000000000000000000000000000000000000000",
"000000000000000000000000000000000000000000000000",
"000000000000000000000000000000000000000000000000",
"000000000000000000000000000000000000000000000000"
};
