/* XPM */
static char *application22_png[] = {
/* columns rows colors chars-per-pixel */
"22 22 26 1 ",
"  c #00B603",
". c #00B404",
"X c #00B504",
"o c #00B505",
"O c #00B604",
"+ c #00B704",
"@ c #00B605",
"# c #00B705",
"$ c #00B406",
"% c #00B40A",
"& c #00AB1B",
"* c #00A924",
"= c #007595",
"- c #006AAF",
"; c #0070A0",
": c #0067B4",
"> c #0066B5",
", c #0067B5",
"< c #0066B6",
"1 c #0067B6",
"2 c #0067B7",
"3 c #0068B5",
"4 c #0069B5",
"5 c #0068B6",
"6 c #0068B7",
"7 c None",
/* pixels */
"7777777777777777777777",
"777777777X@OO#.7777777",
"777777777X@OO@O+777777",
"777777777X@XO@O+O77777",
"7777777777777#O+OO7777",
"77777777777777OOOOO777",
"777777777777777XOOO777",
"7777777777777777OOOX77",
"777-=7777777777OOOO+O ",
"777147777777777OOOOOO7",
"77:11;7777777777OOOO77",
"7211117777777777&OOo77",
"71111167777777777$O777",
"112111<7777777777*%777",
"777111577777,777777777",
"7771111777777777777777",
"7777111577777777777777",
"77773111112>,777777777",
"7777721116,<,777777777",
"7777777616,<,777777777",
"7777777777777777777777",
"7777777777777777777777"
};
