/* XPM */
static char *application64_png[] = {
/* columns rows colors chars-per-pixel */
"64 64 41 1 ",
"  c #00B503",
". c #00B603",
"X c #00B703",
"o c #00B504",
"O c #00B505",
"+ c #00B604",
"@ c #00B704",
"# c #00B605",
"$ c #00B705",
"% c #00B407",
"& c #00B706",
"* c #00B308",
"= c #00B20B",
"- c #00B508",
"; c #00B20D",
": c #00B10F",
"> c #00B20E",
", c #00AF14",
"< c #00AB1D",
"1 c #00A52C",
"2 c #00798C",
"3 c #007499",
"4 c #006FA5",
"5 c #006CA9",
"6 c #006BAD",
"7 c #006AAE",
"8 c #006AAF",
"9 c #0066B5",
"0 c #0067B5",
"q c #0065B7",
"w c #0066B6",
"e c #0067B6",
"r c #0066B7",
"t c #0067B7",
"y c #0068B1",
"u c #0068B3",
"i c #006AB2",
"p c #0068B5",
"a c #0068B6",
"s c #0068B8",
"d c None",
/* pixels */
"dddddddddddddddddddddddddddddddddddddddddddddddddddddddddddddddd",
"dddddddddddddddddddddddddddddddddddddddddddddddddddddddddddddddd",
"dddddddddddddddddddddddddddddddo@+oddddddddddddddddddddddddddddd",
"dddddddddddddddddddddddddoo@####@o+o+@+#+ddddddddddddddddddddddd",
"dddddddddddddddddddddddddoo@####@o+o+@+#O++ddddddddddddddddddddd",
"dddddddddddddddddddddddddoo@O###@o+o+@+#O+++#ddddddddddddddddddd",
"ddddddddddddddddddddddddd@o@O###@o+o+@+#O++++++ddddddddddddddddd",
"ddddddddddddddddddddddddd@o@O#$#@o+o+@+#O+++++++dddddddddddddddd",
"ddddddddddddddddddddddddd@o@O#$#@o+o+++#O++++++++ddddddddddddddd",
"ddddddddddddddddddddddddd@o@O#$#@o+++++#O+++++++++dddddddddddddd",
"ddddddddddddddddddddddddd@o@O#$#@o+++++#O++++++++++ddddddddddddd",
"ddddddddddddddddddddddddd@o@O$&o@#@++++##+++++++++++dddddddddddd",
"ddddddddddddddddddddddddd@ddddddddddd++##++++++++++++ddddddddddd",
"ddddddddddddddddddddddddddddddddddddddd$#++++++++++++ddddddddddd",
"dddddddddddddddddddddddddddddddddddddddd#+++++++++++++dddddddddd",
"dddddddddddddddddddddddddddddddddddddddddd+++++++++++++ddddddddd",
"dddddddddddddddddddddddddddddddddddddddddd@++++++++++++ddddddddd",
"ddddddddddddddddddddddddddddddddddddddddddd++++++++++++ddddddddd",
"ddddddddddddddddddddddddddddddddddddddddddddo+++++++++++dddddddd",
"ddddddddddddddddddddddddddddddddddddddddddddo+++++++++++dddddddd",
"ddddddddddddddddddddddddddddddddddddddddddddd+++++++++++Xddddddd",
"ddddddddddddddddddddddddddddddddddddddddddddd++++++++++++ddddddd",
"ddddddddddd5dddddddddddddddddddddddddddddddddd+++++++++++ddddddd",
"ddddddddddyeddddddddddddddddddddddddddddddd++@+++++++++++@+++++d",
"ddddddddddee7dddddddddddddddddddddddddddddd++++++++++++++++++++d",
"ddddddddd0eee2ddddddddddddddddddddddddddddd.++++++++++++++++++dd",
"dddddddd6eeeeudddddddddddddddddddddddddddddd+++++++++++++++++#dd",
"ddddddddeeeeee3ddddddddddddddddddddddddddddd+++++++++++++++++ddd",
"dddddddieeeeeeadddddddddddddddddddddddddddddd+++++++++++++++@ddd",
"dddddddeeeeeeee4ddddddddddddddddddddddddddddd ++++++++++++++dddd",
"dddddd0eeeeeeeeeddddddddddddddddddddddddddddddo++++++++++++.dddd",
"ddddddeeeeeeeeee8dddddddddddddddddddddddddddddd++++++++++++ddddd",
"dddddaeeeeeeeeeeedddddddddddddddddddddddddddddd;++++++++++dddddd",
"ddddeeeeeeeeeeeeeedddddddddddddddddddddddddddddd++++++++++dddddd",
"ddddeeeeeeeeeeeeeeeddddddddddddddddddddddddddddd,++++++++ddddddd",
"dddeeeeeeeeeeeeeeeeddddddddddddddddddddddddddddddO++++++%ddddddd",
"dddeeeeeeeeeeeeeeeeeddddddddddddddddddddddddddddd<++++++dddddddd",
"ddeeeeeeeeeeeeeeeeeedddddddddddddddddddddddddddddd-++++>dddddddd",
"ddeeeeeeeeeeeeeeeeeeeddddddddddddddddddddddddddddd1+++Oddddddddd",
"deeeeeeeeeeeeeeeeeeeedddddddddddddddqaddddddddddddd=++dddddddddd",
"deeeeeaeeeeeeeeeeeaeeddddddddddddddawadddddddddddddd+*dddddddddd",
"ddddddd0eeeeeeeeeeedddddddddddddddeewadddddddddddddd:ddddddddddd",
"ddddddddeeeeeeeeeeeddddddddddddddreewadddddddddddddddddddddddddd",
"ddddddddeeeeeeeeeeetddddddddddddddeewadddddddddddddddddddddddddd",
"ddddddddaeeeeeeeeeeteddddddddddddddewadddddddddddddddddddddddddd",
"dddddddddeeeeeeeeeetwpddddddddddddddwadddddddddddddddddddddddddd",
"dddddddddeeeeeeeeeetwewddddddddddddddadddddddddddddddddddddddddd",
"ddddddddddeeeeeeeeetweeadddddddddddddddddddddddddddddddddddddddd",
"dddddddddddeeeeeeeetweea0ddddddddddddddddddddddddddddddddddddddd",
"dddddddddddeeeeeeeetweea0e0wdddddddddsdddddddddddddddddddddddddd",
"ddddddddddddaeeeeeetweea0eeeweea0teewadddddddddddddddddddddddddd",
"dddddddddddddeeeeeetweea0eetweea0teewadddddddddddddddddddddddddd",
"ddddddddddddddeeeeetweea0eetweea0teewadddddddddddddddddddddddddd",
"dddddddddddddddeeeetweea0eetweea0teewadddddddddddddddddddddddddd",
"ddddddddddddddddeeetweea0eetweea0teewadddddddddddddddddddddddddd",
"ddddddddddddddddd0etweea0eetweea0teewadddddddddddddddddddddddddd",
"dddddddddddddddddddeweea0eetweea0teewadddddddddddddddddddddddddd",
"ddddddddddddddddddddd0wa0eetweea0teeaadddddddddddddddddddddddddd",
"dddddddddddddddddddddddde9etweea0teeapdddddddddddddddddddddddddd",
"dddddddddddddddddddddddddddddddddddddddddddddddddddddddddddddddd",
"dddddddddddddddddddddddddddddddddddddddddddddddddddddddddddddddd",
"dddddddddddddddddddddddddddddddddddddddddddddddddddddddddddddddd",
"dddddddddddddddddddddddddddddddddddddddddddddddddddddddddddddddd",
"dddddddddddddddddddddddddddddddddddddddddddddddddddddddddddddddd"
};
