/* XPM */
static char *application128_png[] = {
/* columns rows colors chars-per-pixel */
"128 128 58 1 ",
"  c #00B503",
". c #00B603",
"X c #00B703",
"o c #00B307",
"O c #00B404",
"+ c #00B504",
"@ c #00B505",
"# c #00B604",
"$ c #00B704",
"% c #00B605",
"& c #00B705",
"* c #00B406",
"= c #00B407",
"- c #00B607",
"; c #00B804",
": c #00B10B",
"> c #00B30B",
", c #00B408",
"< c #00B508",
"1 c #00B40A",
"2 c #00B20C",
"3 c #00B30C",
"4 c #00B20D",
"5 c #00AE14",
"6 c #00AF14",
"7 c #00AC1D",
"8 c #00B013",
"9 c #00AB20",
"0 c #00A330",
"q c #00A332",
"w c #007E87",
"e c #007597",
"r c #00729B",
"t c #00759A",
"y c #006EA3",
"u c #006FA4",
"i c #006EA6",
"p c #006AAD",
"a c #006BAD",
"s c #0069AF",
"d c #006AAE",
"f c #0070A4",
"g c #0066B5",
"h c #0067B5",
"j c #0066B6",
"k c #0067B6",
"l c #0066B7",
"z c #0067B7",
"x c #0068B2",
"c c #0069B2",
"v c #0068B3",
"b c #0068B4",
"n c #0068B5",
"m c #0068B6",
"M c #0068B7",
"N c #0067B8",
"B c #0068B8",
"V c None",
/* pixels */
"VVVVVVVVVVVVVVVVVVVVVVVVVVVVVVVVVVVVVVVVVVVVVVVVVVVVVVVVVVVVVVVVVVVVVVVVVVVVVVVVVVVVVVVVVVVVVVVVVVVVVVVVVVVVVVVVVVVVVVVVVVVVVVVV",
"VVVVVVVVVVVVVVVVVVVVVVVVVVVVVVVVVVVVVVVVVVVVVVVVVVVVVVVVVVVVVVVVVVVVVVVVVVVVVVVVVVVVVVVVVVVVVVVVVVVVVVVVVVVVVVVVVVVVVVVVVVVVVVVV",
"VVVVVVVVVVVVVVVVVVVVVVVVVVVVVVVVVVVVVVVVVVVVVVVVVVVVVVVVVVVVVVVVVVVVVVVVVVVVVVVVVVVVVVVVVVVVVVVVVVVVVVVVVVVVVVVVVVVVVVVVVVVVVVVV",
"VVVVVVVVVVVVVVVVVVVVVVVVVVVVVVVVVVVVVVVVVVVVVVVVVVVVVVVVVVVVVVVVVVVVVVVVVVVVVVVVVVVVVVVVVVVVVVVVVVVVVVVVVVVVVVVVVVVVVVVVVVVVVVVV",
"VVVVVVVVVVVVVVVVVVVVVVVVVVVVVVVVVVVVVVVVVVVVVVVVVVVVVVVVVVVVVVVVVVVVVVVVVVVVVVVVVVVVVVVVVVVVVVVVVVVVVVVVVVVVVVVVVVVVVVVVVVVVVVVV",
"VVVVVVVVVVVVVVVVVVVVVVVVVVVVVVVVVVVVVVVVVVVVVVVVVVVVVV;#%@&@@&%%+###$##$$+ VVVVVVVVVVVVVVVVVVVVVVVVVVVVVVVVVVVVVVVVVVVVVVVVVVVVV",
"VVVVVVVVVVVVVVVVVVVVVVVVVVVVVVVVVVVVVVVVVVVVVVVVVVV###$#%@&@@&%%+###$##$$++###%@VVVVVVVVVVVVVVVVVVVVVVVVVVVVVVVVVVVVVVVVVVVVVVVV",
"VVVVVVVVVVVVVVVVVVVVVVVVVVVVVVVVVVVVVVVVVVVVVVVVVVV###$#%@&@@&%%+###$##$$++###%%%&%VVVVVVVVVVVVVVVVVVVVVVVVVVVVVVVVVVVVVVVVVVVVV",
"VVVVVVVVVVVVVVVVVVVVVVVVVVVVVVVVVVVVVVVVVVVVVVVVVVV###$#%@&@@&%%#######$$++###%%%&##%;VVVVVVVVVVVVVVVVVVVVVVVVVVVVVVVVVVVVVVVVVV",
"VVVVVVVVVVVVVVVVVVVVVVVVVVVVVVVVVVVVVVVVVVVVVVVVVVV###$#%@&@@&%%#######$$++###%%%&####$@VVVVVVVVVVVVVVVVVVVVVVVVVVVVVVVVVVVVVVVV",
"VVVVVVVVVVVVVVVVVVVVVVVVVVVVVVVVVVVVVVVVVVVVVVVVVVV###$#%@&@@&%%#######$$++##+%%%&#####+#.VVVVVVVVVVVVVVVVVVVVVVVVVVVVVVVVVVVVVV",
"VVVVVVVVVVVVVVVVVVVVVVVVVVVVVVVVVVVVVVVVVVVVVVVVVVV###$#%@&@@&%%#######$$++##+%%%&#####+###VVVVVVVVVVVVVVVVVVVVVVVVVVVVVVVVVVVVV",
"VVVVVVVVVVVVVVVVVVVVVVVVVVVVVVVVVVVVVVVVVVVVVVVVVVV###$#%@&@@&%%#######$$+$##+%%%&#####+####+VVVVVVVVVVVVVVVVVVVVVVVVVVVVVVVVVVV",
"VVVVVVVVVVVVVVVVVVVVVVVVVVVVVVVVVVVVVVVVVVVVVVVVVVV###$#%@&@@&%%#######$$+$##+%%%&#####+######VVVVVVVVVVVVVVVVVVVVVVVVVVVVVVVVVV",
"VVVVVVVVVVVVVVVVVVVVVVVVVVVVVVVVVVVVVVVVVVVVVVVVVVV#####%@&@@&%%#######$$+$##+%%%&#####+#######.VVVVVVVVVVVVVVVVVVVVVVVVVVVVVVVV",
"VVVVVVVVVVVVVVVVVVVVVVVVVVVVVVVVVVVVVVVVVVVVVVVVVVV#####%@&@@&%%#######$$+$##+%%%&##$##+#########VVVVVVVVVVVVVVVVVVVVVVVVVVVVVVV",
"VVVVVVVVVVVVVVVVVVVVVVVVVVVVVVVVVVVVVVVVVVVVVVVVVVV#####%@&@@&%%#######$$+$##+%%%&##$##+#########%VVVVVVVVVVVVVVVVVVVVVVVVVVVVVV",
"VVVVVVVVVVVVVVVVVVVVVVVVVVVVVVVVVVVVVVVVVVVVVVVVVVV#####%@&@@&%@#######$$+$##+%%%&##$##+##########%VVVVVVVVVVVVVVVVVVVVVVVVVVVVV",
"VVVVVVVVVVVVVVVVVVVVVVVVVVVVVVVVVVVVVVVVVVVVVVVVVVV#####%@&@@&%@#######$$+$##+%%%&##$##+############VVVVVVVVVVVVVVVVVVVVVVVVVVVV",
"VVVVVVVVVVVVVVVVVVVVVVVVVVVVVVVVVVVVVVVVVVVVVVVVVVV#####%@&@@&%@#######$$+$##+%%%&##$##+#############VVVVVVVVVVVVVVVVVVVVVVVVVVV",
"VVVVVVVVVVVVVVVVVVVVVVVVVVVVVVVVVVVVVVVVVVVVVVVVVVV#####%&&@@&%@#######$#+$##+%%%&##$##+##############VVVVVVVVVVVVVVVVVVVVVVVVVV",
"VVVVVVVVVVVVVVVVVVVVVVVVVVVVVVVVVVVVVVVVVVVVVVVVVVV#####%&&@@&%@#######$#+$##+%%%&##$##+###############VVVVVVVVVVVVVVVVVVVVVVVVV",
"VVVVVVVVVVVVVVVVVVVVVVVVVVVVVVVVVVVVVVVVVVVVVVVVVVV#####%&&@@&%@#######$#+$##+%%%&##$##+############### VVVVVVVVVVVVVVVVVVVVVVVV",
"VVVVVVVVVVVVVVVVVVVVVVVVVVVVVVVVVVVVVVVVVVVVVVVVVVV#####%&%*VVVVVVV####$#+$##+%%%###$##+################VVVVVVVVVVVVVVVVVVVVVVVV",
"VVVVVVVVVVVVVVVVVVVVVVVVVVVVVVVVVVVVVVVVVVVVVVVVVVV###$VVVVVVVVVVVVVVVVV%+$##+%%%###$##+#################VVVVVVVVVVVVVVVVVVVVVVV",
"VVVVVVVVVVVVVVVVVVVVVVVVVVVVVVVVVVVVVVVVVVVVVVVVVVV#VVVVVVVVVVVVVVVVVVVVVVV##+%%%###$##+##################VVVVVVVVVVVVVVVVVVVVVV",
"VVVVVVVVVVVVVVVVVVVVVVVVVVVVVVVVVVVVVVVVVVVVVVVVVVVVVVVVVVVVVVVVVVVVVVVVVVVVVO%%%###$##+##################VVVVVVVVVVVVVVVVVVVVVV",
"VVVVVVVVVVVVVVVVVVVVVVVVVVVVVVVVVVVVVVVVVVVVVVVVVVVVVVVVVVVVVVVVVVVVVVVVVVVVVVV%%###$##+###################VVVVVVVVVVVVVVVVVVVVV",
"VVVVVVVVVVVVVVVVVVVVVVVVVVVVVVVVVVVVVVVVVVVVVVVVVVVVVVVVVVVVVVVVVVVVVVVVVVVVVVVV+###$##+###################%VVVVVVVVVVVVVVVVVVVV",
"VVVVVVVVVVVVVVVVVVVVVVVVVVVVVVVVVVVVVVVVVVVVVVVVVVVVVVVVVVVVVVVVVVVVVVVVVVVVVVVVV%##$##+####################VVVVVVVVVVVVVVVVVVVV",
"VVVVVVVVVVVVVVVVVVVVVVVVVVVVVVVVVVVVVVVVVVVVVVVVVVVVVVVVVVVVVVVVVVVVVVVVVVVVVVVVVV##$########################VVVVVVVVVVVVVVVVVVV",
"VVVVVVVVVVVVVVVVVVVVVVVVVVVVVVVVVVVVVVVVVVVVVVVVVVVVVVVVVVVVVVVVVVVVVVVVVVVVVVVVVVV#$########################VVVVVVVVVVVVVVVVVVV",
"VVVVVVVVVVVVVVVVVVVVVVVVVVVVVVVVVVVVVVVVVVVVVVVVVVVVVVVVVVVVVVVVVVVVVVVVVVVVVVVVVVVV&#########################VVVVVVVVVVVVVVVVVV",
"VVVVVVVVVVVVVVVVVVVVVVVVVVVVVVVVVVVVVVVVVVVVVVVVVVVVVVVVVVVVVVVVVVVVVVVVVVVVVVVVVVVVV$########################VVVVVVVVVVVVVVVVVV",
"VVVVVVVVVVVVVVVVVVVVVVVVVVVVVVVVVVVVVVVVVVVVVVVVVVVVVVVVVVVVVVVVVVVVVVVVVVVVVVVVVVVVVV%########################VVVVVVVVVVVVVVVVV",
"VVVVVVVVVVVVVVVVVVVVVVVVVVVVVVVVVVVVVVVVVVVVVVVVVVVVVVVVVVVVVVVVVVVVVVVVVVVVVVVVVVVVVVV########################VVVVVVVVVVVVVVVVV",
"VVVVVVVVVVVVVVVVVVVVVVVVVVVVVVVVVVVVVVVVVVVVVVVVVVVVVVVVVVVVVVVVVVVVVVVVVVVVVVVVVVVVVVV$#######################.VVVVVVVVVVVVVVVV",
"VVVVVVVVVVVVVVVVVVVVVVVVVVVVVVVVVVVVVVVVVVVVVVVVVVVVVVVVVVVVVVVVVVVVVVVVVVVVVVVVVVVVVVVV$#######################VVVVVVVVVVVVVVVV",
"VVVVVVVVVVVVVVVVVVVVVVVVVVVVVVVVVVVVVVVVVVVVVVVVVVVVVVVVVVVVVVVVVVVVVVVVVVVVVVVVVVVVVVVVV#######################VVVVVVVVVVVVVVVV",
"VVVVVVVVVVVVVVVVVVVVVVVVVVVVVVVVVVVVVVVVVVVVVVVVVVVVVVVVVVVVVVVVVVVVVVVVVVVVVVVVVVVVVVVVV########################VVVVVVVVVVVVVVV",
"VVVVVVVVVVVVVVVVVVVVVVVVVVVVVVVVVVVVVVVVVVVVVVVVVVVVVVVVVVVVVVVVVVVVVVVVVVVVVVVVVVVVVVVVVV#######################VVVVVVVVVVVVVVV",
"VVVVVVVVVVVVVVVVVVVVVVVVVVVVVVVVVVVVVVVVVVVVVVVVVVVVVVVVVVVVVVVVVVVVVVVVVVVVVVVVVVVVVVVVVV#######################VVVVVVVVVVVVVVV",
"VVVVVVVVVVVVVVVVVVVVVVVVVVVVVVVVVVVVVVVVVVVVVVVVVVVVVVVVVVVVVVVVVVVVVVVVVVVVVVVVVVVVVVVVVV#######################%VVVVVVVVVVVVVV",
"VVVVVVVVVVVVVVVVVVVVVVVVVVVVVVVVVVVVVVVVVVVVVVVVVVVVVVVVVVVVVVVVVVVVVVVVVVVVVVVVVVVVVVVVVVV#######################VVVVVVVVVVVVVV",
"VVVVVVVVVVVVVVVVVVVVVVbVVVVVVVVVVVVVVVVVVVVVVVVVVVVVVVVVVVVVVVVVVVVVVVVVVVVVVVVVVVVVVVVVVVV#######################VVVVVVVVVVVVVV",
"VVVVVVVVVVVVVVVVVVVVVskfVVVVVVVVVVVVVVVVVVVVVVVVVVVVVVVVVVVVVVVVVVVVVVVVVVVVVVVVVVVVVVVVVVVV######################VVVVVVVVVVVVVV",
"VVVVVVVVVVVVVVVVVVVVVkkkVVVVVVVVVVVVVVVVVVVVVVVVVVVVVVVVVVVVVVVVVVVVVVVVVVVVVVVVVVVVVVVVVVVV#######################VVVVVVVVVVVVV",
"VVVVVVVVVVVVVVVVVVVVvkkkpVVVVVVVVVVVVVVVVVVVVVVVVVVVVVVVVVVVVVVVVVVVVVVVVVVVVVVVVVVV###########################################V",
"VVVVVVVVVVVVVVVVVVVikkkkkVVVVVVVVVVVVVVVVVVVVVVVVVVVVVVVVVVVVVVVVVVVVVVVVVVVVVVVVVVVV#########################################VV",
"VVVVVVVVVVVVVVVVVVVnkkkkkcVVVVVVVVVVVVVVVVVVVVVVVVVVVVVVVVVVVVVVVVVVVVVVVVVVVVVVVVVVV%########################################VV",
"VVVVVVVVVVVVVVVVVVdkkkkkkktVVVVVVVVVVVVVVVVVVVVVVVVVVVVVVVVVVVVVVVVVVVVVVVVVVVVVVVVVVV#######################################VVV",
"VVVVVVVVVVVVVVVVVVkkkkkkkkhVVVVVVVVVVVVVVVVVVVVVVVVVVVVVVVVVVVVVVVVVVVVVVVVVVVVVVVVVVV+######################################VVV",
"VVVVVVVVVVVVVVVVVxkkkkkkkkkuVVVVVVVVVVVVVVVVVVVVVVVVVVVVVVVVVVVVVVVVVVVVVVVVVVVVVVVVVVV%####################################VVVV",
"VVVVVVVVVVVVVVVVVkkkkkkkkkkkVVVVVVVVVVVVVVVVVVVVVVVVVVVVVVVVVVVVVVVVVVVVVVVVVVVVVVVVVVVV###################################+VVVV",
"VVVVVVVVVVVVVVVVmkkkkkkkkkkkaVVVVVVVVVVVVVVVVVVVVVVVVVVVVVVVVVVVVVVVVVVVVVVVVVVVVVVVVVVV###################################VVVVV",
"VVVVVVVVVVVVVVVdkkkkkkkkkkkkkwVVVVVVVVVVVVVVVVVVVVVVVVVVVVVVVVVVVVVVVVVVVVVVVVVVVVVVVVVVV#################################VVVVVV",
"VVVVVVVVVVVVVVVkkkkkkkkkkkkkkcVVVVVVVVVVVVVVVVVVVVVVVVVVVVVVVVVVVVVVVVVVVVVVVVVVVVVVVVVVV%################################VVVVVV",
"VVVVVVVVVVVVVVbkkkkkkkkkkkkkkkeVVVVVVVVVVVVVVVVVVVVVVVVVVVVVVVVVVVVVVVVVVVVVVVVVVVVVVVVVVV###############################VVVVVVV",
"VVVVVVVVVVVVVVkkkkkkkkkkkkkkkkmVVVVVVVVVVVVVVVVVVVVVVVVVVVVVVVVVVVVVVVVVVVVVVVVVVVVVVVVVVVV#############################%VVVVVVV",
"VVVVVVVVVVVVVhkkkkkkkkkkkkkkkkkyVVVVVVVVVVVVVVVVVVVVVVVVVVVVVVVVVVVVVVVVVVVVVVVVVVVVVVVVVVV.############################VVVVVVVV",
"VVVVVVVVVVVVVkkkkkkkkkkkkkkkkkkkVVVVVVVVVVVVVVVVVVVVVVVVVVVVVVVVVVVVVVVVVVVVVVVVVVVVVVVVVVVV###########################VVVVVVVVV",
"VVVVVVVVVVVVkkkkkkkkkkkkkkkkkkkkaVVVVVVVVVVVVVVVVVVVVVVVVVVVVVVVVVVVVVVVVVVVVVVVVVVVVVVVVVVV##########################.VVVVVVVVV",
"VVVVVVVVVVVgkkkkkkkkkkkkkkkkkkkkkrVVVVVVVVVVVVVVVVVVVVVVVVVVVVVVVVVVVVVVVVVVVVVVVVVVVVVVVVVVV+########################VVVVVVVVVV",
"VVVVVVVVVVVkkkkkkkkkkkkkkkkkkkkkkbVVVVVVVVVVVVVVVVVVVVVVVVVVVVVVVVVVVVVVVVVVVVVVVVVVVVVVVVVVV ########################VVVVVVVVVV",
"VVVVVVVVVVmkkkkkkkkkkkkkkkkkkkkkkkhVVVVVVVVVVVVVVVVVVVVVVVVVVVVVVVVVVVVVVVVVVVVVVVVVVVVVVVVVVV,######################VVVVVVVVVVV",
"VVVVVVVVVVkkkkkkkkkkkkkkkkkkkkkkkkkVVVVVVVVVVVVVVVVVVVVVVVVVVVVVVVVVVVVVVVVVVVVVVVVVVVVVVVVVVVq#####################XVVVVVVVVVVV",
"VVVVVVVVVkkkkkkkkkkkkkkkkkkkkkkkkkkzVVVVVVVVVVVVVVVVVVVVVVVVVVVVVVVVVVVVVVVVVVVVVVVVVVVVVVVVVVV4####################VVVVVVVVVVVV",
"VVVVVVVVVkkkkkkkkkkkkkkkkkkkkkkkkkkkVVVVVVVVVVVVVVVVVVVVVVVVVVVVVVVVVVVVVVVVVVVVVVVVVVVVVVVVVVVV###################VVVVVVVVVVVVV",
"VVVVVVVVkkkkkkkkkkkkkkkkkkkkkkkkkkkkhVVVVVVVVVVVVVVVVVVVVVVVVVVVVVVVVVVVVVVVVVVVVVVVVVVVVVVVVVVV6#################@VVVVVVVVVVVVV",
"VVVVVVVhkkkkkkkkkkkkkkkkkkkkkkkkkkkkkVVVVVVVVVVVVVVVVVVVVVVVVVVVVVVVVVVVVVVVVVVVVVVVVVVVVVVVVVVVV@################VVVVVVVVVVVVVV",
"VVVVVVVkkkkkkkkkkkkkkkkkkkkkkkkkkkkkkkVVVVVVVVVVVVVVVVVVVVVVVVVVVVVVVVVVVVVVVVVVVVVVVVVVVVVVVVVVV9###############-VVVVVVVVVVVVVV",
"VVVVVVkkkkkkkkkkkkkkkkkkkkkkkkkkkkkkkkkVVVVVVVVVVVVVVVVVVVVVVVVVVVVVVVVVVVVVVVVVVVVVVVVVVVVVVVVVVV=##############VVVVVVVVVVVVVVV",
"VVVVVVkkkkkkkkkkkkkkkkkkkkkkkkkkkkkkkkkVVVVVVVVVVVVVVVVVVVVVVVVVVVVVVVVVVVVVVVVVVVVVVVVVVVVVVVVVVV0#############>VVVVVVVVVVVVVVV",
"VVVVVkkkkkkkkkkkkkkkkkkkkkkkkkkkkkkkkkkzVVVVVVVVVVVVVVVVVVVVVVVVVVVVVVVVVVVVVVVVVVVVVVVVVVVVVVVVVVV2###########&VVVVVVVVVVVVVVVV",
"VVVVjkkkkkkkkkkkkkkkkkkkkkkkkkkkkkkkkkkkVVVVVVVVVVVVVVVVVVVVVVVVVVVVVVVVVVVVVVVVVVVVVVVVVVVVVVVVVVVV###########VVVVVVVVVVVVVVVVV",
"VVVVkkkkkkkkkkkkkkkkkkkkkkkkkkkkkkkkkkkkkVVVVVVVVVVVVVVVVVVVVVVVVVVVVVVVVVVVMVVVVVVVVVVVVVVVVVVVVVVV5#########oVVVVVVVVVVVVVVVVV",
"VVVjkkkkkkkkkkkkkkkkkkkkkkkkkkkkkkkkkkkkkjVVVVVVVVVVVVVVVVVVVVVVVVVVVVVVVVVjMVVVVVVVVVVVVVVVVVVVVVVVV%########VVVVVVVVVVVVVVVVVV",
"VVVkkkkkkkkkkkkkkkkkkkkkkkkkkkkkkkkkkkkkkkVVVVVVVVVVVVVVVVVVVVVVVVVVVVVVVVgjMVVVVVVVVVVVVVVVVVVVVVVVV7#######3VVVVVVVVVVVVVVVVVV",
"VVzkkkkkkkkkkkkkkkkkkkkkkkkkkkkkkkkkkkkkkkjVVVVVVVVVVVVVVVVVVVVVVVVVVVVVVzgjMVVVVVVVVVVVVVVVVVVVVVVVVV<#####%VVVVVVVVVVVVVVVVVVV",
"VVkkkkkkkkkkkkkkkkkkkkkkkkkkkkkkkkkkkkkkkkkVVVVVVVVVVVVVVVVVVVVVVVVVVVVVzzgjMVVVVVVVVVVVVVVVVVVVVVVVVVV#####6VVVVVVVVVVVVVVVVVVV",
"VkkkkkkkkkkkkkkkkkkkkkkkkkkkkkkkkkkkkkkkkkkkVVVVVVVVVVVVVVVVVVVVVVVVVVVgzzgjMVVVVVVVVVVVVVVVVVVVVVVVVVV:###=VVVVVVVVVVVVVVVVVVVV",
"VVVVVVVVVVVVVVkkkkkkkkkkkkkkkkkkkkkkkVVVVVVVVVVVVVVVVVVVVVVVVVVVVVVVVVzgzzgjMVVVVVVVVVVVVVVVVVVVVVVVVVVV###VVVVVVVVVVVVVVVVVVVVV",
"VVVVVVVVVVVVVVkkkkkkkkkkkkkkkkkkkkkkkhVVVVVVVVVVVVVVVVVVVVVVVVVVVVVVVkzgzzgjMVVVVVVVVVVVVVVVVVVVVVVVVVVV8#1VVVVVVVVVVVVVVVVVVVVV",
"VVVVVVVVVVVVVVVkkkkkkkkkkkkkkkkkkkkkkkVVVVVVVVVVVVVVVVVVVVVVVVVVVVVVkkzgzzgjMVVVVVVVVVVVVVVVVVVVVVVVVVVVV%VVVVVVVVVVVVVVVVVVVVVV",
"VVVVVVVVVVVVVVVkkkkkkkkkkkkkkkkkkkkkkkmVVVVVVVVVVVVVVVVVVVVVVVVVVVVhkkzgzzgjMVVVVVVVVVVVVVVVVVVVVVVVVVVVVVVVVVVVVVVVVVVVVVVVVVVV",
"VVVVVVVVVVVVVVVkkkkkkkkkkkkkkkkkkkkkkkkVVVVVVVVVVVVVVVVVVVVVVVVVVVjhkkzgzzgjMVVVVVVVVVVVVVVVVVVVVVVVVVVVVVVVVVVVVVVVVVVVVVVVVVVV",
"VVVVVVVVVVVVVVVVkkkkkkkkkkkkkkkkkkkkkkkkVVVVVVVVVVVVVVVVVVVVVVVVVVhhkkzgzzgjMVVVVVVVVVVVVVVVVVVVVVVVVVVVVVVVVVVVVVVVVVVVVVVVVVVV",
"VVVVVVVVVVVVVVVVkkkkkkkkkkkkkkkkkkkkkkkgVVVVVVVVVVVVVVVVVVVVVVVVVVVhkkzgzzgjMVVVVVVVVVVVVVVVVVVVVVVVVVVVVVVVVVVVVVVVVVVVVVVVVVVV",
"VVVVVVVVVVVVVVVVmkkkkkkkkkkkkkkkkkkkkkkgkVVVVVVVVVVVVVVVVVVVVVVVVVVVkkzgzzgjMVVVVVVVVVVVVVVVVVVVVVVVVVVVVVVVVVVVVVVVVVVVVVVVVVVV",
"VVVVVVVVVVVVVVVVVkkkkkkkkkkkkkkkkkkkkkkgkmVVVVVVVVVVVVVVVVVVVVVVVVVVVkzgzzgjMVVVVVVVVVVVVVVVVVVVVVVVVVVVVVVVVVVVVVVVVVVVVVVVVVVV",
"VVVVVVVVVVVVVVVVVhkkkkkkkkkkkkkkkkkkkkkgkkjVVVVVVVVVVVVVVVVVVVVVVVVVVVjgzzgjMVVVVVVVVVVVVVVVVVVVVVVVVVVVVVVVVVVVVVVVVVVVVVVVVVVV",
"VVVVVVVVVVVVVVVVVVkkkkkkkkkkkkkkkkkkkkkgkkghVVVVVVVVVVVVVVVVVVVVVVVVVVVVzzgjMVVVVVVVVVVVVVVVVVVVVVVVVVVVVVVVVVVVVVVVVVVVVVVVVVVV",
"VVVVVVVVVVVVVVVVVVhkkkkkkkkkkkkkkkkkkkkgkkgkMVVVVVVVVVVVVVVVVVVVVVVVVVVVVzgjMVVVVVVVVVVVVVVVVVVVVVVVVVVVVVVVVVVVVVVVVVVVVVVVVVVV",
"VVVVVVVVVVVVVVVVVVVkkkkkkkkkkkkkkkkkkkkgkkgkkmVVVVVVVVVVVVVVVVVVVVVVVVVVVVgjMVVVVVVVVVVVVVVVVVVVVVVVVVVVVVVVVVVVVVVVVVVVVVVVVVVV",
"VVVVVVVVVVVVVVVVVVVVkkkkkkkkkkkkkkkkkkkgkkgkkmkVVVVVVVVVVVVVVVVVVVVVVVVVVVVjMVVVVVVVVVVVVVVVVVVVVVVVVVVVVVVVVVVVVVVVVVVVVVVVVVVV",
"VVVVVVVVVVVVVVVVVVVVkkkkkkkkkkkkkkkkkkkgkkgkkmkkVVVVVVVVVVVVVVVVVVVVVVVVVVVVMVVVVVVVVVVVVVVVVVVVVVVVVVVVVVVVVVVVVVVVVVVVVVVVVVVV",
"VVVVVVVVVVVVVVVVVVVVVkkkkkkkkkkkkkkkkkkgkkgkkmkkMkVVVVVVVVVVVVVVVVVVVVVVVVVVVVVVVVVVVVVVVVVVVVVVVVVVVVVVVVVVVVVVVVVVVVVVVVVVVVVV",
"VVVVVVVVVVVVVVVVVVVVVlkkkkkkkkkkkkkkkkkgkkgkkMkkMkkkVVVVVVVVVVVVVVVVVVVVVVVVVVVVVVVVVVVVVVVVVVVVVVVVVVVVVVVVVVVVVVVVVVVVVVVVVVVV",
"VVVVVVVVVVVVVVVVVVVVVVkkkkkkkkkkkkkkkkkgkkgkkMkkMkkkkkVVVVVVVVVVVVVVVVVVVVmjMVVVVVVVVVVVVVVVVVVVVVVVVVVVVVVVVVVVVVVVVVVVVVVVVVVV",
"VVVVVVVVVVVVVVVVVVVVVVVkkkkkkkkkkkkkkkkgkkgkkMkkMkkkkkkgzhVVVVVVVVVVVVzgzznjMVVVVVVVVVVVVVVVVVVVVVVVVVVVVVVVVVVVVVVVVVVVVVVVVVVV",
"VVVVVVVVVVVVVVVVVVVVVVVhkkkkkkkkkkkkkkkgkkgkkMkkMkkkkkkgkzgkzmkkmkkkkkzgzznjMVVVVVVVVVVVVVVVVVVVVVVVVVVVVVVVVVVVVVVVVVVVVVVVVVVV",
"VVVVVVVVVVVVVVVVVVVVVVVVjkkkkkkkkkkkkkkgkkgkkMkkMkkkkkkgkzgkzmkkmkkkkkzgzznjMVVVVVVVVVVVVVVVVVVVVVVVVVVVVVVVVVVVVVVVVVVVVVVVVVVV",
"VVVVVVVVVVVVVVVVVVVVVVVVVhkkkkkkkkkkkkkgkkgkkMkkMkkkkkkgkzgkzmkkmkkkkkzgzznjMVVVVVVVVVVVVVVVVVVVVVVVVVVVVVVVVVVVVVVVVVVVVVVVVVVV",
"VVVVVVVVVVVVVVVVVVVVVVVVVVkkkkkkkkkkkkkgkkgkkMkkMkkkkkkgkzgkzmkkmkkkkkzgzznjMVVVVVVVVVVVVVVVVVVVVVVVVVVVVVVVVVVVVVVVVVVVVVVVVVVV",
"VVVVVVVVVVVVVVVVVVVVVVVVVVVkkkkkkkkkkkkgkkgkkMkkMkkkkkkgkzgkzmkkmkkkkkzgzznjMVVVVVVVVVVVVVVVVVVVVVVVVVVVVVVVVVVVVVVVVVVVVVVVVVVV",
"VVVVVVVVVVVVVVVVVVVVVVVVVVVVkkkkkkkkkkkgkkgkkMkkMkkkkkkgkzgkzmkkMkkkkkzgzznjMVVVVVVVVVVVVVVVVVVVVVVVVVVVVVVVVVVVVVVVVVVVVVVVVVVV",
"VVVVVVVVVVVVVVVVVVVVVVVVVVVVVjkkkkkkkkkgkkgkkMkkMkkkkkkgkzgkzmkkMkkkkkzgzznjMVVVVVVVVVVVVVVVVVVVVVVVVVVVVVVVVVVVVVVVVVVVVVVVVVVV",
"VVVVVVVVVVVVVVVVVVVVVVVVVVVVVVkkkkkkkkkgkkgkkMkkMkkkkkkgkznkzmkkMkkkkkzgzznjMVVVVVVVVVVVVVVVVVVVVVVVVVVVVVVVVVVVVVVVVVVVVVVVVVVV",
"VVVVVVVVVVVVVVVVVVVVVVVVVVVVVVVkkkkkkkkgkkgkkMkkMkkkkkkgkznkzmkkMkkkkkzgzznjMVVVVVVVVVVVVVVVVVVVVVVVVVVVVVVVVVVVVVVVVVVVVVVVVVVV",
"VVVVVVVVVVVVVVVVVVVVVVVVVVVVVVVVVkkkkkkgkkgkkMkkMkkkkkkgkznkzmkkMkkkkkzgzznjMVVVVVVVVVVVVVVVVVVVVVVVVVVVVVVVVVVVVVVVVVVVVVVVVVVV",
"VVVVVVVVVVVVVVVVVVVVVVVVVVVVVVVVVVjkkkkgkkjkkMkkMkkkkkkgkznkzmkkMkkkkkzgzznjMVVVVVVVVVVVVVVVVVVVVVVVVVVVVVVVVVVVVVVVVVVVVVVVVVVV",
"VVVVVVVVVVVVVVVVVVVVVVVVVVVVVVVVVVVVkkkgkkjkkMkkMkkkkkkgkznkzmkkMkkkkkzgzznjMVVVVVVVVVVVVVVVVVVVVVVVVVVVVVVVVVVVVVVVVVVVVVVVVVVV",
"VVVVVVVVVVVVVVVVVVVVVVVVVVVVVVVVVVVVVkkgkkjkkMkkMkkkkkkgkznkzmkkMkkkkkzgzznjkVVVVVVVVVVVVVVVVVVVVVVVVVVVVVVVVVVVVVVVVVVVVVVVVVVV",
"VVVVVVVVVVVVVVVVVVVVVVVVVVVVVVVVVVVVVVVhkkjkkMkkMkkkkkkgkznkzmkkMkkkkkzggznjkVVVVVVVVVVVVVVVVVVVVVVVVVVVVVVVVVVVVVVVVVVVVVVVVVVV",
"VVVVVVVVVVVVVVVVVVVVVVVVVVVVVVVVVVVVVVVVVmzkkMkkMkkkkkkgkznkzmkkMkkkkkzggznjkVVVVVVVVVVVVVVVVVVVVVVVVVVVVVVVVVVVVVVVVVVVVVVVVVVV",
"VVVVVVVVVVVVVVVVVVVVVVVVVVVVVVVVVVVVVVVVVVVVzMkkMkkkkkkgkznkzmkkMkkkkkzggznjkVVVVVVVVVVVVVVVVVVVVVVVVVVVVVVVVVVVVVVVVVVVVVVVVVVV",
"VVVVVVVVVVVVVVVVVVVVVVVVVVVVVVVVVVVVVVVVVVVVVVVgMkkkkkkgkznkzmkkMkkkgkzggznjkVVVVVVVVVVVVVVVVVVVVVVVVVVVVVVVVVVVVVVVVVVVVVVVVVVV",
"VVVVVVVVVVVVVVVVVVVVVVVVVVVVVVVVVVVVVVVVVVVVVVVVVVVmzkkgkznkzmkkMkkkgkzggznVVVVVVVVVVVVVVVVVVVVVVVVVVVVVVVVVVVVVVVVVVVVVVVVVVVVV",
"VVVVVVVVVVVVVVVVVVVVVVVVVVVVVVVVVVVVVVVVVVVVVVVVVVVVVVVVVNbjkBzkMjmzhVVVVVVVVVVVVVVVVVVVVVVVVVVVVVVVVVVVVVVVVVVVVVVVVVVVVVVVVVVV",
"VVVVVVVVVVVVVVVVVVVVVVVVVVVVVVVVVVVVVVVVVVVVVVVVVVVVVVVVVVVVVVVVVVVVVVVVVVVVVVVVVVVVVVVVVVVVVVVVVVVVVVVVVVVVVVVVVVVVVVVVVVVVVVVV",
"VVVVVVVVVVVVVVVVVVVVVVVVVVVVVVVVVVVVVVVVVVVVVVVVVVVVVVVVVVVVVVVVVVVVVVVVVVVVVVVVVVVVVVVVVVVVVVVVVVVVVVVVVVVVVVVVVVVVVVVVVVVVVVVV",
"VVVVVVVVVVVVVVVVVVVVVVVVVVVVVVVVVVVVVVVVVVVVVVVVVVVVVVVVVVVVVVVVVVVVVVVVVVVVVVVVVVVVVVVVVVVVVVVVVVVVVVVVVVVVVVVVVVVVVVVVVVVVVVVV",
"VVVVVVVVVVVVVVVVVVVVVVVVVVVVVVVVVVVVVVVVVVVVVVVVVVVVVVVVVVVVVVVVVVVVVVVVVVVVVVVVVVVVVVVVVVVVVVVVVVVVVVVVVVVVVVVVVVVVVVVVVVVVVVVV",
"VVVVVVVVVVVVVVVVVVVVVVVVVVVVVVVVVVVVVVVVVVVVVVVVVVVVVVVVVVVVVVVVVVVVVVVVVVVVVVVVVVVVVVVVVVVVVVVVVVVVVVVVVVVVVVVVVVVVVVVVVVVVVVVV",
"VVVVVVVVVVVVVVVVVVVVVVVVVVVVVVVVVVVVVVVVVVVVVVVVVVVVVVVVVVVVVVVVVVVVVVVVVVVVVVVVVVVVVVVVVVVVVVVVVVVVVVVVVVVVVVVVVVVVVVVVVVVVVVVV",
"VVVVVVVVVVVVVVVVVVVVVVVVVVVVVVVVVVVVVVVVVVVVVVVVVVVVVVVVVVVVVVVVVVVVVVVVVVVVVVVVVVVVVVVVVVVVVVVVVVVVVVVVVVVVVVVVVVVVVVVVVVVVVVVV",
"VVVVVVVVVVVVVVVVVVVVVVVVVVVVVVVVVVVVVVVVVVVVVVVVVVVVVVVVVVVVVVVVVVVVVVVVVVVVVVVVVVVVVVVVVVVVVVVVVVVVVVVVVVVVVVVVVVVVVVVVVVVVVVVV",
"VVVVVVVVVVVVVVVVVVVVVVVVVVVVVVVVVVVVVVVVVVVVVVVVVVVVVVVVVVVVVVVVVVVVVVVVVVVVVVVVVVVVVVVVVVVVVVVVVVVVVVVVVVVVVVVVVVVVVVVVVVVVVVVV"
};
